<?xml version="1.0" encoding="UTF-8" standalone="no"?>
<!DOCTYPE svg PUBLIC "-//W3C//DTD SVG 1.1//EN" "http://www.w3.org/Graphics/SVG/1.1/DTD/svg11.dtd">
<!-- Created with Vectornator (http://vectornator.io/) -->
<svg height="100%" stroke-miterlimit="10" style="fill-rule:nonzero;clip-rule:evenodd;stroke-linecap:round;stroke-linejoin:round;" version="1.1" viewBox="0 0 300 300" width="100%" xml:space="preserve" xmlns="http://www.w3.org/2000/svg" xmlns:vectornator="http://vectornator.io" xmlns:xlink="http://www.w3.org/1999/xlink">
<defs/>
<g id="Untitled" vectornator:layerName="Untitled">
<g opacity="1">
<g opacity="1">
<clipPath id="ClipPath">
<path d="M22.0004 22.0004L278 22.0004L278 22.0004L278 278L278 278L22.0004 278L22.0004 278L22.0004 22.0004L22.0004 22.0004Z"/>
</clipPath>
<g clip-path="url(#ClipPath)">
<path d="M267.503 153.947C259.409 139.927 247.63 129.359 234.094 122.762C232.362 132.008 229.086 141.123 224.121 149.724L216.287 163.318C221.505 166.217 226.047 170.485 229.251 176.033C238.662 192.331 233.074 213.18 216.772 222.592C200.473 232.004 179.624 226.419 170.212 210.116L154.405 182.78L128.896 182.78L116.141 204.869L131.96 232.202C153.572 269.632 201.43 282.456 238.861 260.844C276.287 239.236 289.111 191.377 267.503 153.947" fill="#000000" fill-rule="nonzero" opacity="1" stroke="none"/>
<path d="M189.122 39.155C151.692 17.5466 103.833 30.3707 82.2249 67.7974C74.1268 81.8177 70.8684 97.302 71.9215 112.324C80.7939 109.202 90.3267 107.481 100.259 107.481L115.946 107.466C115.847 101.5 117.274 95.4307 120.473 89.8864C129.889 73.5838 150.734 67.9955 167.037 77.4109C183.339 86.8226 188.924 107.668 179.512 123.97L163.745 151.329L176.496 173.421L202.005 173.418L217.764 146.052C239.377 108.625 226.552 60.7634 189.122 39.155" fill="#000000" fill-rule="nonzero" opacity="1" stroke="none"/>
<path d="M125.607 235.872L117.748 222.292C112.629 225.363 106.663 227.161 100.26 227.161C81.4328 227.161 66.1723 211.9 66.1723 193.073C66.1723 174.25 81.4328 158.989 100.26 158.989L131.834 158.967L144.592 136.878L131.834 114.789L100.256 114.818C57.0357 114.818 22.0014 149.856 22.0014 193.073C22.0014 236.294 57.0357 271.332 100.256 271.332C116.441 271.332 131.474 266.415 143.954 258.001C136.813 251.877 130.572 244.469 125.607 235.872" fill="#000000" fill-rule="nonzero" opacity="1" stroke="none"/>
</g>
</g>
</g>
</g>
</svg>
